<?xml version="1.0" encoding="UTF-8"?>
<svg xmlns="http://www.w3.org/2000/svg" xmlns:xlink="http://www.w3.org/1999/xlink" width="375pt" height="374.999991pt" viewBox="0 0 375 374.999991" version="1.2">
<defs>
<clipPath id="clip1">
  <path d="M 239 108 L 374.996094 108 L 374.996094 200 L 239 200 Z M 239 108 "/>
</clipPath>
<clipPath id="clip2">
  <path d="M 239 175 L 374.996094 175 L 374.996094 267 L 239 267 Z M 239 175 "/>
</clipPath>
<clipPath id="clip3">
  <path d="M 111 20 L 264 20 L 264 356 L 111 356 Z M 111 20 "/>
</clipPath>
<clipPath id="clip4">
  <path d="M 361.511719 257.289062 L 118.054688 361.3125 L 14.027344 117.855469 L 257.484375 13.832031 Z M 361.511719 257.289062 "/>
</clipPath>
<clipPath id="clip5">
  <path d="M 361.511719 257.289062 L 118.054688 361.3125 L 14.027344 117.855469 L 257.484375 13.832031 Z M 361.511719 257.289062 "/>
</clipPath>
</defs>
<g id="surface1">
<g clip-path="url(#clip1)" clip-rule="nonzero">
<path style=" stroke:none;fill-rule:nonzero;fill:rgb(15.289307%,15.289307%,15.289307%);fill-opacity:1;" d="M 369.1875 168.253906 L 251.050781 109.191406 C 245.988281 106.660156 239.234375 110.878906 239.234375 116.785156 L 239.234375 131.972656 C 239.234375 135.347656 240.921875 137.878906 244.300781 139.566406 L 362.4375 198.628906 C 367.5 201.160156 374.253906 196.941406 374.253906 191.035156 L 374.253906 175.847656 C 374.253906 172.472656 372.566406 169.941406 369.1875 168.253906 Z M 369.1875 168.253906 "/>
</g>
<g clip-path="url(#clip2)" clip-rule="nonzero">
<path style=" stroke:none;fill-rule:nonzero;fill:rgb(15.289307%,15.289307%,15.289307%);fill-opacity:1;" d="M 362.4375 176.691406 L 244.300781 235.753906 C 241.769531 237.441406 239.234375 239.972656 239.234375 243.347656 L 239.234375 258.535156 C 239.234375 264.441406 245.988281 268.660156 251.050781 266.128906 L 369.1875 207.066406 C 372.566406 205.378906 374.253906 202.847656 374.253906 199.472656 L 374.253906 184.285156 C 374.253906 178.378906 367.5 174.160156 362.4375 176.691406 Z M 362.4375 176.691406 "/>
</g>
<g clip-path="url(#clip3)" clip-rule="nonzero">
<g clip-path="url(#clip4)" clip-rule="nonzero">
<g clip-path="url(#clip5)" clip-rule="nonzero">
<path style=" stroke:none;fill-rule:nonzero;fill:rgb(27.059937%,49.01886%,34.509277%);fill-opacity:1;" d="M 254.472656 21.335938 C 255.359375 21.691406 256.203125 22.128906 257.003906 22.652344 C 257.804688 23.171875 258.542969 23.769531 259.226562 24.4375 C 259.910156 25.105469 260.519531 25.832031 261.058594 26.621094 C 261.597656 27.40625 262.058594 28.242188 262.433594 29.121094 C 262.808594 29.996094 263.09375 30.902344 263.289062 31.839844 C 263.488281 32.773438 263.589844 33.71875 263.601562 34.671875 C 263.613281 35.628906 263.527344 36.574219 263.351562 37.511719 C 263.175781 38.453125 262.910156 39.363281 262.554688 40.25 L 139.976562 345.730469 C 139.632812 346.632812 139.203125 347.492188 138.6875 348.308594 C 138.175781 349.125 137.582031 349.882812 136.917969 350.582031 C 136.25 351.28125 135.523438 351.90625 134.730469 352.460938 C 133.941406 353.015625 133.101562 353.488281 132.21875 353.875 C 131.332031 354.261719 130.417969 354.558594 129.476562 354.761719 C 128.53125 354.96875 127.578125 355.078125 126.609375 355.09375 C 125.644531 355.105469 124.6875 355.027344 123.738281 354.851562 C 122.789062 354.675781 121.863281 354.40625 120.96875 354.046875 C 120.070312 353.6875 119.21875 353.242188 118.414062 352.714844 C 117.605469 352.183594 116.855469 351.582031 116.167969 350.902344 C 115.480469 350.222656 114.867188 349.484375 114.328125 348.683594 C 113.789062 347.882812 113.332031 347.039062 112.960938 346.144531 C 112.589844 345.253906 112.308594 344.335938 112.121094 343.386719 C 111.929688 342.441406 111.835938 341.484375 111.839844 340.519531 C 111.839844 339.554688 111.9375 338.597656 112.128906 337.652344 C 112.324219 336.703125 112.605469 335.785156 112.980469 334.894531 L 235.558594 29.417969 C 235.914062 28.53125 236.355469 27.6875 236.875 26.886719 C 237.398438 26.089844 237.992188 25.347656 238.660156 24.664062 C 239.328125 23.980469 240.054688 23.371094 240.84375 22.832031 C 241.632812 22.292969 242.464844 21.835938 243.34375 21.460938 C 244.222656 21.085938 245.128906 20.796875 246.0625 20.601562 C 246.996094 20.40625 247.941406 20.300781 248.898438 20.289062 C 249.851562 20.28125 250.796875 20.363281 251.738281 20.539062 C 252.675781 20.714844 253.589844 20.980469 254.472656 21.335938 Z M 254.472656 21.335938 "/>
</g>
</g>
</g>
<path style=" stroke:none;fill-rule:nonzero;fill:rgb(15.289307%,15.289307%,15.289307%);fill-opacity:1;" d="M 5.804688 168.253906 L 123.945312 109.191406 C 129.007812 106.660156 135.757812 110.878906 135.757812 116.785156 L 135.757812 131.972656 C 135.757812 135.347656 134.070312 137.878906 130.695312 139.566406 L 12.554688 198.628906 C 7.492188 201.160156 0.742188 196.941406 0.742188 191.035156 L 0.742188 175.847656 C 0.742188 172.472656 2.429688 169.941406 5.804688 168.253906 Z M 5.804688 168.253906 "/>
<path style=" stroke:none;fill-rule:nonzero;fill:rgb(15.289307%,15.289307%,15.289307%);fill-opacity:1;" d="M 12.554688 176.691406 L 130.695312 235.753906 C 133.226562 237.441406 135.757812 239.972656 135.757812 243.347656 L 135.757812 258.535156 C 135.757812 264.441406 129.007812 268.660156 123.945312 266.128906 L 5.804688 207.066406 C 2.429688 205.378906 0.742188 202.847656 0.742188 199.472656 L 0.742188 184.285156 C 0.742188 178.378906 7.492188 174.160156 12.554688 176.691406 Z M 12.554688 176.691406 "/>
</g>
</svg>
